<?xml version="1.0" encoding="UTF-8"?>
<!-- Generator: Adobe Illustrator 22.0.1, SVG Export Plug-In . SVG Version: 6.00 Build 0)  -->
<svg version="1.1" id="Layer_1" xmlns="http://www.w3.org/2000/svg" xmlns:xlink="http://www.w3.org/1999/xlink" x="0px" y="0px" viewBox="0 0 100 99.7" style="enable-background:new 0 0 100 99.7;" xml:space="preserve">
<g>
	<path d="M51.1,35.5c-1.6,0-2.9,1.3-2.9,2.9v14.5c0,1.1,0.6,2.1,1.6,2.6l10.9,5.6c0.4,0.2,0.9,0.3,1.3,0.3c1.1,0,2.1-0.6,2.6-1.6   c0.7-1.4,0.2-3.2-1.3-3.9L54,51.1V38.4C54,36.8,52.7,35.5,51.1,35.5z"/>
	<path d="M77.8,36.7L77.8,36.7c0.8,0,1.5-0.3,2-0.7c0.6-0.5,0.9-1.2,0.9-2l0.6-12.4c0.1-1.6-1.2-3-2.8-3c-1.6-0.1-3,1.2-3,2.8   l-0.2,4.4c-6.2-5.9-14.5-9.3-23.2-9.3c-18.6,0-33.6,15.1-33.6,33.6c0,18.6,15.1,33.6,33.6,33.6c11.3,0,21.8-5.6,28-15   c0.9-1.3,0.5-3.1-0.8-4s-3.1-0.5-4,0.8c-5.2,7.8-13.9,12.4-23.2,12.4c-15.4,0-27.8-12.5-27.8-27.8s12.5-27.8,27.8-27.8   c7.6,0,14.8,3.1,20,8.5l-6.6-0.3c-1.6-0.1-3,1.2-3,2.8c-0.1,1.6,1.2,3,2.8,3L77.8,36.7z"/>
</g>
<script xmlns=""/></svg>