<?xml version="1.0" encoding="utf-8"?>
<!-- Generator: Adobe Illustrator 22.0.1, SVG Export Plug-In . SVG Version: 6.00 Build 0)  -->
<svg version="1.1" id="Layer_1" xmlns="http://www.w3.org/2000/svg" xmlns:xlink="http://www.w3.org/1999/xlink" x="0px" y="0px"
	 viewBox="0 0 279 112.8" style="enable-background:new 0 0 279 112.8;" xml:space="preserve">
<g>
	<path d="M184,5c23,7,43,11,66-5c-12,11-30,19-59,15c28,15,64,17,87-2c-18,18-42,20-77,15c19,5,58,6,78-1c-20,10-68,9-84,3
		c12,6,48,9,69,6c-23,6-40,3-45,3c7,3,29,7,55,1c-26,9-49,8-80-2c10,6,45,12,64,11c-19,3-39-1-45-1c14,6,30,8,45,8c-28,3-50-4-78-14
		c22,13,32,14,55,20c-12,0-26-2-41-8c8,5,24,12,34,14c-22-3-43-9-63-23c22,20,40,21,73,29c-39-3-54-6-82-26c12,10,28,22,59,30
		c-25-4-50-16-63-26c16,14,25,19,46,27c-22-7-33-10-52-26c13,13,19,18,41,27c-17-5-23-9-36-18c9,8,19,16,39,23c-19-4-36-14-50-26
		c8,9,14,14,24,21c-16-8-19-12-29-22c11,15,14,20,33,31c-20-9-20-10-36-24c10,11,17,19,32,25c-12-4-26-13-32-22c11,18,18,24,36,39
		c-21-13-38-27-50-45c0,0,13,22,25,32c13,9,13,11,13,11s-14-10-21-17c-7-6-10-10-10-10c3,6,8,12,13,17c-9-6-16-14-22-22
		c5,7,9,15,14,22c-11-14-13-17-16-21c4,8,6,17,8,23c-5-9-10-19-15-27c5,10,6,24,5,33c-2-11-6-23-10-32c2,6,2,25,0,34
		c-2-13,1-22-6-35c2,13-1,21-7,33c4-11,4-22,2-34c0,9-1,23-8,31c4-13,3-20,0-33c1,14,1,20-9,32c5-8,5-14,4-23c-2,9-5,17-11,23
		c7-10,6-20,4-26c1,8,1,13-7,19c5-7,4-10,4-15c-2,5-8,11-12,15c6-11,8-11,8-24c-2,10-4,14-12,20c6-7,7-14,7-23c-4,11-9,15-19,22
		c8-8,10-13,11-24c-3,8-9,17-18,20c7-5,12-13,13-22c-2,7-11,13-18,17c-1,0,13-10,13-14c-2,5-16,11-20,12c7-4,17-11,18-17
		c-3,5-7,9-11,10c1-2,6-6,6-9c-2,3-12,11-22,12c10-3,18-11,19-15c-2,4-13,10-24,11c11-4,19-11,21-15c-3,3-17,11-28,11
		c10-2,28-13,22-19C86,48,156,63,184,5z"/>
</g>
</svg>
