<?xml version="1.0" encoding="utf-8"?>
<!-- Generator: Adobe Illustrator 22.0.1, SVG Export Plug-In . SVG Version: 6.00 Build 0)  -->
<svg version="1.1" id="Layer_1" xmlns="http://www.w3.org/2000/svg" xmlns:xlink="http://www.w3.org/1999/xlink" x="0px" y="0px"
	 viewBox="0 0 100 102.5" style="enable-background:new 0 0 100 102.5;" xml:space="preserve">
<g>
	<path d="M90.2,9.5C90.2,9.5,90.2,9.5,90.2,9.5c0-0.1,0-0.2,0-0.3c0,0,0,0,0,0c0,0,0,0,0,0c0,0,0-0.1,0-0.1c0-0.1,0-0.1,0-0.2
		c0,0,0,0,0,0c0,0,0,0,0,0c0,0,0,0,0,0c0-0.1-0.1-0.2-0.1-0.3c0-0.1-0.1-0.2-0.2-0.3c0,0,0,0,0,0c-0.1-0.2-0.3-0.3-0.4-0.4
		c0,0,0,0,0,0c0,0,0,0,0,0c-0.1-0.1-0.2-0.1-0.3-0.1c0,0-0.1,0-0.1,0c-0.1,0-0.3,0-0.4,0c0,0,0,0,0,0C57.2,9.3,46.1,19.6,42.4,25.2
		l-1.2-3.9l-1.5,0.5c-7.2,2.5-10.5,10.9-10.6,11.2c-0.3,0.8,0.1,1.6,0.9,1.9c0.2,0.1,0.4,0.1,0.5,0.1c0.6,0,1.2-0.4,1.4-1
		c0-0.1,2.4-6.2,7.4-8.8l1,3.2c0.2,0.8,0.9,1.3,1.7,1.4c0.8,0.1,1.5-0.4,1.9-1.1c1.5-3.3,7.8-13,31.9-16.7
		c-23.5,10.1-35.6,29-41.7,44.3c-1.9,4.7-3.3,9.3-4.4,13.5c-3.1-3.4-8.9-11.7-5.1-23.6l4.8,6l2.5-1.7c0,0-2.4-4.2-1.3-11.9
		c0.1-0.8-0.5-1.6-1.3-1.7c-0.8-0.1-1.6,0.5-1.7,1.3c-0.4,2.6-0.4,4.8-0.2,6.7l-3.7-4.6l-1,2.3c-7,16.6,3.3,27.8,6.2,30.5
		c-2.6,11.3-2.6,19.5-2.6,20c0,0.8,0.7,1.5,1.5,1.5c0,0,0,0,0,0c0.8,0,1.5-0.7,1.5-1.5c0-0.2,0.2-17.3,7.7-35.9
		c8.4-20.9,22.2-35.3,41.1-43c-1.8,1.6-2.5,2.7-2.5,2.8c-0.4,0.7-0.2,1.6,0.5,2.1c0.2,0.2,0.5,0.2,0.8,0.2c0.5,0,1-0.2,1.3-0.7
		c0,0,2.7-4.1,11.4-8.1c0,0,0,0,0,0c0,0,0,0,0,0c0.1,0,0.1-0.1,0.2-0.1c0,0,0,0,0.1,0c0,0,0,0,0,0c0,0,0.1-0.1,0.1-0.1
		c0.1-0.1,0.3-0.3,0.3-0.5c0,0,0,0,0,0c0,0,0,0,0-0.1c0,0,0,0,0,0C90.1,9.7,90.2,9.6,90.2,9.5z"/>
	<path d="M72.5,22.3c-1.4,1.7-3.2,5-3.9,6.3L54.6,32L65,35.5l-4.4,9.3l-12.7,6.1c-0.7,0.3-1.1,1.1-1,1.8c0.1,0.8,0.7,1.4,1.4,1.5
		l7.9,1.5c-5.5,14.1-18.5,16.6-19.1,16.7c-0.8,0.1-1.4,0.9-1.2,1.7c0.1,0.7,0.8,1.2,1.5,1.2c0.1,0,0.2,0,0.3,0
		c0.7-0.1,16.3-3,22-20.3l0.5-1.6L52.5,52l10.3-4.9l6.3-13.3l-3.6-1.2l5.3-1.3l0.3-0.6c0.6-1.3,2.5-4.8,3.8-6.4
		c0.5-0.6,0.4-1.6-0.2-2.1C74,21.6,73.1,21.7,72.5,22.3z"/>
</g>
</svg>
