<?xml version="1.0" encoding="utf-8"?>
<!-- Generator: Adobe Illustrator 22.0.1, SVG Export Plug-In . SVG Version: 6.00 Build 0)  -->
<svg version="1.1" id="Layer_1" xmlns="http://www.w3.org/2000/svg" xmlns:xlink="http://www.w3.org/1999/xlink" x="0px" y="0px"
	 viewBox="0 0 100 96" style="enable-background:new 0 0 100 96;" xml:space="preserve">
<path d="M67.5,66.2h-5.3l0,0c-0.2-3.5-1.5-6.7-4-9.3l-1.8-1.8c0.8-1.1,1.2-2.6,1.2-4.1s-0.5-3-1.2-4.3l7.9-7.9c2.6-2.6,4-6.1,4-9.7
	v-0.9c1.4,0.6,2.1,1.1,2.1,1.1c0.3,0.2,0.6,0.3,0.9,0.3c0.3,0,0.5,0,0.6-0.2c0.5-0.3,0.9-0.8,0.9-1.4V15.9c0-0.5-0.2-0.9-0.6-1.2
	c-0.3,0-6.7-4.7-22.2-4.7s-21.9,4.7-22.2,4.9c-0.5,0.3-0.6,0.8-0.6,1.2v12.2c0,0.6,0.3,1.1,0.8,1.4s1.1,0.2,1.5-0.2
	c0,0,0.8-0.5,2.1-1.1v0.9c0,3.6,1.4,7.1,4,9.7l7.9,7.9c-0.6,1.1-1.1,2.6-1.1,4.1s0.5,3,1.2,4.3l-1.8,1.8c-2.4,2.4-3.8,5.6-4,9.1l0,0
	h-5.3c-4.6,0-8.4,3.8-8.4,8.4v3c0,4.6,3.8,8.4,8.4,8.4s8.4-3.8,8.4-8.4V66.7c0-2.9,1.1-5.5,3.2-7.4l1.8-1.8c1.1,0.8,2.6,1.2,4.1,1.2
	s3-0.5,4.3-1.2l1.8,1.8c2,2,3.2,4.7,3.2,7.4v10.9c0,4.6,3.8,8.4,8.4,8.4c4.6,0,8.4-3.8,8.4-8.4v-3C75.8,70,72,66.2,67.5,66.2z
	 M37.8,77.6c0,2.9-2.4,5.3-5.3,5.3c-2.9,0-5.3-2.4-5.3-5.3v-3c0-2.9,2.4-5.3,5.3-5.3h5.3V77.6z M50,13c11.9,0,17.9,2.9,19.8,4v2.7
	c-3.2-1.4-9.4-3.5-19.8-3.5s-16.6,2.1-19.8,3.5V17C32,15.9,38.1,13,50,13z M30.2,23.1c1.8-1.1,7.9-4,19.8-4s17.9,2.9,19.8,4v2.7
	c-3.2-1.4-9.4-3.5-19.8-3.5s-16.6,2.1-19.8,3.5V23.1z M34.8,29.3v-2.1c3.3-1.1,8.2-2,15.2-2s11.9,0.9,15.2,2v2.1
	c0,2.9-1.1,5.5-3.2,7.4l-7.9,7.9c-1.1-0.8-2.6-1.2-4.1-1.2s-3,0.5-4.3,1.2l-7.9-7.9C35.8,34.8,34.8,32.2,34.8,29.3z M45.4,51
	c0-2.6,2-4.6,4.6-4.6c2.6,0,4.6,2,4.6,4.6c0,2.6-2,4.6-4.6,4.6C47.4,55.6,45.4,53.6,45.4,51z M72.8,77.6c0,2.9-2.4,5.3-5.3,5.3
	c-2.9,0-5.3-2.4-5.3-5.3v-8.4h5.3c2.9,0,5.3,2.4,5.3,5.3V77.6z"/>
</svg>
